#N canvas 498 81 557 534 10;
#X obj 0 0 cnv 15 552 40 empty empty allow 3 12 0 18 -204280 -1 0;
#X obj 0 353 cnv 3 550 3 empty empty inlets 8 12 0 13 -228856 -1 0
;
#X obj 0 394 cnv 3 550 3 empty empty outlets 8 12 0 13 -228856 -1 0
;
#X obj 0 431 cnv 3 550 3 empty empty arguments 8 12 0 13 -228856 -1
0;
#X obj 79 403 cnv 17 3 17 empty empty 0 5 9 0 16 -228856 -162280 0
;
#X obj 79 367 cnv 17 3 17 empty empty 0 5 9 0 16 -228856 -162280 0
;
#X obj 0 495 cnv 15 552 21 empty empty empty 20 12 0 14 -233017 -33289
0;
#N canvas 240 348 428 75 Related_objects 0;
#X obj 0 0 cnv 15 425 20 empty empty empty 3 12 0 14 -204280 -1 0;
#X text 6 1 Related Objects;
#X obj 9 30 maxlib/deny;
#X restore 206 497 pd Related_objects;
#N canvas 513 575 379 261 META 0;
#X text 12 25 LICENSE GPL v2;
#X text 12 45 DESCRIPTION let only 'allowed' floats or symbols through
;
#X text 12 65 INLET_0 float symbol;
#X text 12 85 OUTLET_0 float symbol;
#X text 12 105 AUTHOR Olaf Matthes;
#X text 12 5 KEYWORDS control filter;
#X text 12 146 HELP_PATCH_AUTHORS "pd meta" information added by Jonathan
Wilkes for Pd version 0.42. Updated by Fred Jan Kraan 2016-02.;
#X text 12 125 MAINTAINER Fred Jan Kraan <fjkraan@xs4all.nl>;
#X restore 502 499 pd META;
#X msg 133 82 dog;
#X msg 133 105 bird;
#X floatatom 79 322 5 0 0 0 - - -, f 5;
#X symbolatom 131 321 10 0 0 0 - - -, f 10;
#X floatatom 41 59 5 0 0 0 - - -, f 5;
#X obj 79 293 route float symbol;
#X msg 190 105 symbol cat;
#X obj 133 151 symbol;
#X msg 133 58 cat;
#X msg 79 58 15;
#X msg 79 81 17;
#X msg 79 103 21;
#X msg 79 125 23;
#X obj 79 229 maxlib/allow 17 cat dog 23;
#X text 8 23 lets only 'allowed' floats or symbols through;
#X text 107 403 float or symbol;
#X text 107 367 anything;
#X text 96 440 list of allowed floats or symbols;
#X obj 0 464 cnv 3 550 3 empty empty more_info 8 12 0 13 -228856 -1
0;
#X text 162 367 - input value;
#X text 96 473 of a list \, only the first element is considered;
#X msg 190 82 list cat dog bird;
#X msg 190 59 list 17 23 13;
#X obj 513 4 allow;
#X text 206 403 - passed only if it is on the argument list;
#X connect 9 0 16 0;
#X connect 10 0 16 0;
#X connect 13 0 22 0;
#X connect 14 0 11 0;
#X connect 14 1 12 0;
#X connect 15 0 22 0;
#X connect 16 0 22 0;
#X connect 17 0 16 0;
#X connect 18 0 22 0;
#X connect 19 0 22 0;
#X connect 20 0 22 0;
#X connect 21 0 22 0;
#X connect 22 0 14 0;
#X connect 30 0 22 0;
#X connect 31 0 22 0;
