#N canvas 498 80 556 520 10;
#X obj 0 0 cnv 15 552 40 empty empty beta 3 12 0 18 -204280 -1 0;
#X obj 0 289 cnv 3 550 3 empty empty inlets 8 12 0 13 -228856 -1 0
;
#X obj 0 391 cnv 3 550 3 empty empty outlets 8 12 0 13 -228856 -1 0
;
#X obj 0 428 cnv 3 550 3 empty empty arguments 8 12 0 13 -228856 -1
0;
#X obj 79 302 cnv 17 3 17 empty empty 0 5 9 0 16 -228856 -162280 0
;
#X obj 0 481 cnv 15 552 21 empty empty empty 20 12 0 14 -233017 -33289
0;
#N canvas 242 347 428 75 Related_objects 0;
#X obj 0 0 cnv 15 425 20 empty empty empty 3 12 0 14 -204280 -1 0;
#X text 6 1 Related Objects;
#X restore 206 485 pd Related_objects;
#N canvas 933 383 379 261 META 0;
#X text 12 145 AUTHOR Olaf Matthes;
#X text 12 186 HELP_PATCH_AUTHORS "pd meta" information added by Jonathan
Wilkes for Pd version 0.42. Updated by Fred Jan Kraan 2016-02.;
#X text 12 25 LICENSE GPL v2;
#X text 12 125 OUTLET_0 float;
#X text 12 5 KEYWORDS control random;
#X text 12 45 DESCRIPTION beta distributed random numbers;
#X text 12 65 INLET_0 bang;
#X text 12 85 INLET_1 float;
#X text 12 105 INLET_2 float;
#X text 12 165 MAINTAINER Fred Jan Kraan <fjkraan@xs4all.nl>;
#X restore 502 485 pd META;
#X text 107 302 bang;
#X text 163 302 - calculate next output value;
#X obj 79 331 cnv 17 3 17 empty empty 1 5 9 0 16 -228856 -162280 0
;
#X obj 518 4 beta;
#X text 8 23 beta distributed random numbers;
#X obj 77 100 bng 20 250 50 0 empty empty empty 0 -6 0 8 -262144 -1
-1;
#X floatatom 77 262 5 0 0 0 - - -, f 5;
#X floatatom 135 99 5 0 0 0 - - -, f 5;
#X floatatom 194 100 5 0 0 0 - - -, f 5;
#X obj 77 170 maxlib/beta 0.78 1.3;
#X text 96 436 arg1: default a value;
#X text 107 330 float;
#X text 162 329 - new a value;
#X obj 79 360 cnv 17 3 17 empty empty 2 5 9 0 16 -228856 -162280 0
;
#X text 107 359 float;
#X text 162 358 - new b value;
#X obj 79 403 cnv 17 3 17 empty empty 0 5 9 0 16 -228856 -162280 0
;
#X text 107 403 float;
#X text 163 403 - random number;
#X text 96 453 arg2: default b value;
#X obj 77 74 metro 100;
#X obj 77 53 tgl 15 0 empty empty empty 17 7 0 10 -262144 -1 -1 0 1
;
#N canvas 0 50 450 250 (subpatch) 0;
#X array \$0-a1 100 float 2;
#X coords 0 1 100 0 200 140 1 0 0;
#X restore 349 143 graph;
#X obj 153 266 tabwrite \$0-a1;
#X obj 234 244 f 0;
#X obj 260 245 + 1;
#X obj 153 222 t f b;
#X msg 234 221 0;
#X text 339 141 1;
#X text 339 271 0;
#X text 258 221 restart;
#X connect 13 0 17 0;
#X connect 15 0 17 1;
#X connect 16 0 17 2;
#X connect 17 0 14 0;
#X connect 17 0 34 0;
#X connect 28 0 13 0;
#X connect 29 0 28 0;
#X connect 32 0 33 0;
#X connect 32 0 31 1;
#X connect 33 0 32 1;
#X connect 34 0 31 0;
#X connect 34 1 32 0;
#X connect 35 0 32 0;
