#N canvas 483 79 557 515 10;
#X obj 0 0 cnv 15 552 40 empty empty gauss 3 12 0 18 -204280 -1 0;
#X obj 0 317 cnv 3 550 3 empty empty inlets 8 12 0 13 -228856 -1 0
;
#X obj 0 401 cnv 3 550 3 empty empty outlets 8 12 0 13 -228856 -1 0
;
#X obj 0 441 cnv 3 550 3 empty empty arguments 8 12 0 13 -228856 -1
0;
#X obj 79 410 cnv 17 3 17 empty empty 0 5 9 0 16 -228856 -162280 0
;
#X obj 79 328 cnv 17 3 17 empty empty 0 5 9 0 16 -228856 -162280 0
;
#X obj 0 480 cnv 15 552 21 empty empty empty 20 12 0 14 -233017 -33289
0;
#N canvas 240 348 428 75 Related_objects 0;
#X obj 0 0 cnv 15 425 20 empty empty empty 3 12 0 14 -204280 -1 0;
#X text 6 1 Related Objects;
#X restore 206 482 pd Related_objects;
#N canvas 503 580 379 261 META 0;
#X text 12 180 HELP_PATCH_AUTHORS "pd meta" information added by Jonathan
Wilkes for Pd version 0.42. Updated by Fred Jan Kraan 2016-02.;
#X text 12 145 AUTHOR Olaf Matthes;
#X text 12 25 LICENSE GPL v2;
#X text 12 125 OUTLET_0 float;
#X text 12 45 DESCRIPTION Gauss distributed random numbers;
#X text 12 5 KEYWORDS control random;
#X text 12 65 INLET_0 bang;
#X text 12 85 INLET_1 float;
#X text 12 105 INLET_2 float;
#X text 12 162 MAINTAINER Fred Jan Kraan <fjkraan@xs4all.nl>;
#X restore 502 484 pd META;
#X obj 77 96 bng 20 250 50 0 empty empty empty 0 -6 0 8 -262144 -1
-1;
#X floatatom 77 259 5 0 0 0 - - -, f 5;
#X floatatom 123 93 5 0 0 0 - - -, f 5;
#N canvas 0 50 450 250 (subpatch) 0;
#X array \$0-a1 100 float 2;
#X coords 0 -5 100 5 200 140 1 0 0;
#X restore 337 59 graph;
#X obj 77 74 metro 100;
#X obj 77 53 tgl 15 0 empty empty empty 17 7 0 10 -262144 -1 -1 0 1
;
#X text 107 327 bang;
#X text 162 327 - trigger next random number;
#X obj 79 353 cnv 17 3 17 empty empty 1 5 9 0 16 -228856 -162280 0
;
#X text 107 352 float;
#X text 8 23 Gauss distributed random numbers;
#X obj 77 158 maxlib/gauss 1 0;
#X floatatom 170 93 5 0 0 0 - - -, f 5;
#X text 321 59 5;
#X text 321 187 -5;
#X obj 507 4 gauss;
#X obj 79 377 cnv 17 3 17 empty empty 2 5 9 0 16 -228856 -162280 0
;
#X text 107 376 float;
#X text 162 352 - sigma (standard deviation);
#X text 162 376 - mu (mean);
#X text 86 462 default value for sigma and mu;
#X text 107 410 float;
#X text 161 410 - next random number;
#N canvas 1 79 450 300 arrayWrite 0;
#X obj 0 0 cnv 15 425 20 empty empty empty 3 12 0 14 -204280 -1 0;
#X text 6 1 Array writer;
#X obj 136 174 tabwrite \$0-a1;
#X obj 217 152 f 0;
#X obj 243 153 + 1;
#X obj 136 130 t f b;
#X msg 217 129 0;
#X text 241 129 restart;
#X obj 136 82 inlet;
#X obj 217 82 inlet;
#X connect 3 0 4 0;
#X connect 3 0 2 1;
#X connect 4 0 3 1;
#X connect 5 0 2 0;
#X connect 5 1 3 0;
#X connect 6 0 3 0;
#X connect 8 0 5 0;
#X connect 9 0 6 0;
#X restore 341 260 pd arrayWrite;
#X obj 416 238 bng 15 250 50 0 empty empty empty 17 7 0 10 -262144
-1 -1;
#X connect 9 0 20 0;
#X connect 11 0 20 1;
#X connect 13 0 9 0;
#X connect 14 0 13 0;
#X connect 20 0 10 0;
#X connect 20 0 32 0;
#X connect 21 0 20 2;
#X connect 33 0 32 1;
