#N canvas 424 80 557 534 10;
#X obj 0 0 cnv 15 552 40 empty empty ignore 3 12 0 18 -204280 -1 0
;
#X obj 0 326 cnv 3 550 3 empty empty inlets 8 12 0 13 -228856 -1 0
;
#X obj 0 388 cnv 3 550 3 empty empty outlets 8 12 0 13 -228856 -1 0
;
#X obj 0 429 cnv 3 550 3 empty empty arguments 8 12 0 13 -228856 -1
0;
#X obj 79 397 cnv 17 3 17 empty empty 0 5 9 0 16 -228856 -162280 0
;
#X obj 79 340 cnv 17 3 17 empty empty 0 5 9 0 16 -228856 -162280 0
;
#X obj 0 493 cnv 15 552 21 empty empty empty 20 12 0 14 -233017 -33289
0;
#N canvas 242 347 428 75 Related_objects 0;
#X obj 0 0 cnv 15 425 20 empty empty empty 3 12 0 14 -204280 -1 0;
#X text 6 1 Related Objects;
#X restore 206 495 pd Related_objects;
#N canvas 510 680 379 261 META 0;
#X text 12 140 AUTHOR Olaf Matthes;
#X text 13 179 HELP_PATCH_AUTHORS "pd meta" information added by Jonathan
Wilkes for Pd version 0.42. Updated by Fred Jan Kraan 2016-02.;
#X text 12 25 LICENSE GPL v2;
#X text 12 100 INLET_1 float;
#X text 12 120 OUTLET_0 float;
#X text 12 5 KEYWORDS control filter;
#X text 12 45 DESCRIPTION lets information through only when it was
present at input longer than N ms;
#X text 12 80 INLET_0 float;
#X text 13 160 MAINTAINER Fred Jan Kraan <fjkraan@xs4all.nl>;
#X restore 502 497 pd META;
#X obj 0 462 cnv 3 550 3 empty empty more_info 8 12 0 13 -228856 -1
0;
#X text 162 340 - input value;
#X text 8 23 lets information through only when it was present at input
longer than N ms, f 75;
#X obj 105 210 maxlib/ignore 500;
#X floatatom 105 129 5 0 0 0 - - -, f 5;
#X obj 105 95 metro 100;
#X obj 105 68 tgl 15 0 empty empty empty 17 7 0 10 -262144 -1 -1 0
1;
#X floatatom 105 278 5 0 0 0 - - -, f 5;
#X floatatom 204 129 5 0 0 0 - - -, f 5;
#X obj 507 4 ignore;
#X obj 79 364 cnv 17 3 17 empty empty 1 5 9 0 16 -228856 -162280 0
;
#X text 107 340 float;
#X text 107 364 float;
#X text 162 364 - ignore time;
#X text 96 471 input gets delayed by N milliseconds;
#X floatatom 156 69 5 0 0 0 - - -, f 5;
#X text 96 438 list of creation argument = time in ms;
#X text 107 397 float;
#X text 162 397 - passed only no new value is received in the last
N milliseconds;
#X connect 12 0 16 0;
#X connect 13 0 12 0;
#X connect 14 0 13 0;
#X connect 15 0 14 0;
#X connect 17 0 12 1;
#X connect 24 0 14 1;
