#N canvas 489 81 557 515 10;
#X obj 0 0 cnv 15 552 40 empty empty listfunnel 3 12 0 18 -204280 -1
0;
#X obj 0 346 cnv 3 550 3 empty empty inlets 8 12 0 13 -228856 -1 0
;
#X obj 0 389 cnv 3 550 3 empty empty outlets 8 12 0 13 -228856 -1 0
;
#X obj 0 445 cnv 3 550 3 empty empty arguments 8 12 0 13 -228856 -1
0;
#X obj 79 400 cnv 17 3 17 empty empty 0 5 9 0 16 -228856 -162280 0
;
#X obj 79 359 cnv 17 3 17 empty empty 0 5 9 0 16 -228856 -162280 0
;
#X obj 0 476 cnv 15 552 21 empty empty empty 20 12 0 14 -233017 -33289
0;
#N canvas 240 348 428 75 Related_objects 0;
#X obj 0 0 cnv 15 425 20 empty empty empty 3 12 0 14 -204280 -1 0;
#X text 6 1 Related Objects;
#X restore 206 478 pd Related_objects;
#N canvas 501 581 379 261 META 0;
#X text 12 144 HELP_PATCH_AUTHORS "pd meta" information added by Jonathan
Wilkes for Pd version 0.42. Updated by Fred Jan Kraan 2016-02.;
#X text 12 106 AUTHOR Olaf Matthes;
#X text 12 25 LICENSE GPL v2;
#X text 12 5 KEYWORDS control storage list_op;
#X text 12 45 DESCRIPTION first in first out buffer for lists;
#X text 12 65 INLET_0 bang list;
#X text 12 85 OUTLET_0 list;
#X text 12 126 MAINTAINER Fred Jan Kraan <fjkraan@xs4all.nl>;
#X restore 502 480 pd META;
#X floatatom 152 280 5 0 0 0 - - -, f 5;
#X floatatom 209 280 5 0 0 0 - - -, f 5;
#X text 107 357 list;
#X text 162 357 - inserts a list into the fifo buffer;
#X text 8 23 send values out as a list with source index;
#X obj 481 4 listfunnel;
#X obj 86 187 maxlib/listfunnel;
#X msg 86 91 1 2 3 4 5;
#X msg 93 112 6 7 8 9 10;
#X obj 86 298 print listfunnel_output;
#X obj 152 255 unpack f f;
#X text 107 400 list;
#X text 161 400 - a two numbered list for each element of the inserted
list. The first number is an index \, starting at 0 \, the second a
value from the list;
#X connect 15 0 18 0;
#X connect 15 0 19 0;
#X connect 16 0 15 0;
#X connect 17 0 15 0;
#X connect 19 0 9 0;
#X connect 19 1 10 0;
