#N canvas 514 82 557 515 10;
#X obj 0 0 cnv 15 552 40 empty empty netdist 3 12 0 18 -204280 -1 0
;
#X obj 0 308 cnv 3 550 3 empty empty inlets 8 12 0 13 -228856 -1 0
;
#X obj 0 423 cnv 3 550 3 empty empty outlets 8 12 0 13 -228856 -1 0
;
#X obj 0 468 cnv 3 550 3 empty empty arguments 8 12 0 13 -228856 -1
0;
#X obj 79 433 cnv 17 3 17 empty empty 0 5 9 0 16 -228856 -162280 0
;
#X obj 79 320 cnv 17 3 50 empty empty 0 5 9 0 16 -228856 -162280 0
;
#X obj 0 511 cnv 15 552 21 empty empty empty 20 12 0 14 -233017 -33289
0;
#N canvas 232 352 428 75 Related_objects 0;
#X obj 0 0 cnv 15 425 20 empty empty empty 3 12 0 14 -204280 -1 0;
#X text 6 1 Related Objects;
#X restore 207 514 pd Related_objects;
#N canvas 605 591 379 261 META 0;
#X text 12 125 HELP_PATCH_AUTHORS "pd meta" information added by Jonathan
Wilkes for Pd version 0.42. Updated by Fred Jan Kraan 2016-02.;
#X text 12 106 AUTHOR Olaf Matthes;
#X text 12 25 LICENSE GPL v2;
#X text 12 45 DESCRIPTION distribute data to several netreceive;
#X text 12 5 KEYWORDS control network;
#X text 12 65 INLET_0 connect disconnect print clear send;
#X text 12 85 OUTLET_0 float;
#X restore 502 514 pd META;
#X text 107 339 disconnect;
#X text 176 340 - disconnect current connection;
#X text 107 319 connect h p;
#X text 175 319 - connect to host h on port p;
#X text 85 486 used protocol. 0 = tcp (packet mode) \, 1 = udp (streaming
mode), f 64;
#X obj 487 4 netdist;
#X text 7 23 distribute data to several [netreceive], f 76;
#X msg 114 102 print;
#X msg 118 123 clear;
#X floatatom 82 281 5 0 0 0 - - -, f 5;
#X text 163 103 print list of connections;
#X text 165 120 disconnect all;
#X text 246 145 send values;
#N canvas 1110 336 450 300 receivers 0;
#X floatatom 83 102 5 0 0 0 - - -, f 5;
#X floatatom 216 101 5 0 0 0 - - -, f 5;
#X obj 77 69 netreceive 3002;
#X obj 210 69 netreceive 3003;
#X obj 0 0 cnv 15 425 20 empty empty empty 3 12 0 14 -204280 -1 0;
#X text 6 1 receivers;
#X obj 80 156 outlet;
#X obj 210 156 outlet;
#X connect 2 0 0 0;
#X connect 2 0 6 0;
#X connect 3 0 1 0;
#X connect 3 0 7 0;
#X restore 429 71 pd receivers;
#X obj 82 212 maxlib/netdist;
#X floatatom 429 113 5 0 0 0 - - -, f 5;
#X floatatom 498 113 5 0 0 0 - - -, f 5;
#X text 432 95 3002;
#X text 504 95 3003;
#N canvas 414 355 450 300 counter 0;
#X obj 0 0 cnv 15 425 20 empty empty empty 3 12 0 14 -204280 -1 0;
#X text 6 1 counter;
#X obj 138 116 f 0;
#X obj 165 116 + 1;
#X obj 138 94 metro 500;
#X obj 138 32 inlet;
#X obj 145 54 tgl 15 0 empty empty empty 17 7 0 10 -262144 -1 -1 0
1;
#X obj 138 169 outlet;
#X connect 2 0 3 0;
#X connect 2 0 7 0;
#X connect 3 0 2 1;
#X connect 4 0 2 0;
#X connect 5 0 4 0;
#X connect 6 0 4 0;
#X restore 337 123 pd counter;
#X msg 125 144 send \$1;
#X obj 337 102 tgl 15 0 empty empty empty 17 7 0 10 -262144 -1 -1 0
1;
#N canvas 665 537 450 300 toggle 0;
#X obj 128 20 inlet;
#X obj 145 272 outlet;
#X msg 169 20 3002;
#X obj 145 88 tgl 15 0 empty empty empty 17 7 0 10 -262144 -1 -1 0
1;
#X obj 145 139 bng 15 250 50 0 empty empty empty 17 7 0 10 -262144
-1 -1;
#X obj 184 139 bng 15 250 50 0 empty empty empty 17 7 0 10 -262144
-1 -1;
#X obj 145 112 moses 1;
#X obj 145 172 f;
#X obj 184 171 f;
#X obj 128 52 t f b f f;
#X msg 145 215 disconnect localhost \$1;
#X msg 184 239 connect localhost \$1;
#X obj 195 272 outlet;
#X connect 0 0 9 0;
#X connect 2 0 9 0;
#X connect 3 0 6 0;
#X connect 3 0 12 0;
#X connect 4 0 7 0;
#X connect 5 0 8 0;
#X connect 6 0 4 0;
#X connect 6 1 5 0;
#X connect 7 0 10 0;
#X connect 8 0 11 0;
#X connect 9 1 3 0;
#X connect 9 2 7 1;
#X connect 9 3 8 1;
#X connect 10 0 1 0;
#X connect 11 0 1 0;
#X restore 82 67 pd toggle connection;
#X msg 82 45 3002;
#X obj 209 68 tgl 15 0 empty empty empty 17 7 0 10 -262144 -1 -1 0
1;
#N canvas 665 537 450 300 toggle 0;
#X obj 128 20 inlet;
#X obj 145 272 outlet;
#X msg 169 20 3002;
#X obj 145 88 tgl 15 0 empty empty empty 17 7 0 10 -262144 -1 -1 0
1;
#X obj 145 139 bng 15 250 50 0 empty empty empty 17 7 0 10 -262144
-1 -1;
#X obj 184 139 bng 15 250 50 0 empty empty empty 17 7 0 10 -262144
-1 -1;
#X obj 145 112 moses 1;
#X obj 145 172 f;
#X obj 184 171 f;
#X obj 128 52 t f b f f;
#X msg 145 215 disconnect localhost \$1;
#X msg 184 239 connect localhost \$1;
#X obj 195 272 outlet;
#X connect 0 0 9 0;
#X connect 2 0 9 0;
#X connect 3 0 6 0;
#X connect 3 0 12 0;
#X connect 4 0 7 0;
#X connect 5 0 8 0;
#X connect 6 0 4 0;
#X connect 6 1 5 0;
#X connect 7 0 10 0;
#X connect 8 0 11 0;
#X connect 9 1 3 0;
#X connect 9 2 7 1;
#X connect 9 3 8 1;
#X connect 10 0 1 0;
#X connect 11 0 1 0;
#X restore 229 67 pd toggle connection;
#X obj 356 68 tgl 15 0 empty empty empty 17 7 0 10 -262144 -1 -1 0
1;
#X msg 229 45 3003;
#X text 107 359 clear;
#X text 177 359 - disconnect all;
#X text 107 379 print;
#X text 177 379 - print list of connections;
#X text 107 398 send f;
#X text 177 398 - send float f;
#X text 107 433 float;
#X text 161 433 - the number of connections;
#X connect 16 0 23 0;
#X connect 17 0 23 0;
#X connect 22 0 24 0;
#X connect 22 1 25 0;
#X connect 23 0 18 0;
#X connect 28 0 29 0;
#X connect 29 0 23 0;
#X connect 30 0 28 0;
#X connect 31 0 23 0;
#X connect 31 1 33 0;
#X connect 32 0 31 0;
#X connect 34 0 23 0;
#X connect 34 1 35 0;
#X connect 36 0 34 0;
