#N canvas 502 79 557 515 10;
#X obj 0 0 cnv 15 552 40 empty empty netrec 3 12 0 18 -204280 -1 0
;
#X obj 0 308 cnv 3 550 3 empty empty inlets 8 12 0 13 -228856 -1 0
;
#X obj 0 347 cnv 3 550 3 empty empty outlets 8 12 0 13 -228856 -1 0
;
#X obj 0 468 cnv 3 550 3 empty empty arguments 8 12 0 13 -228856 -1
0;
#X obj 79 357 cnv 17 3 17 empty empty 0 5 9 0 16 -228856 -162280 0
;
#X obj 79 320 cnv 17 3 17 empty empty 0 5 9 0 16 -228856 -162280 0
;
#X obj 0 511 cnv 15 552 21 empty empty empty 20 12 0 14 -233017 -33289
0;
#N canvas 232 352 428 75 Related_objects 0;
#X obj 0 0 cnv 15 425 20 empty empty empty 3 12 0 14 -204280 -1 0;
#X text 6 1 Related Objects;
#X restore 207 514 pd Related_objects;
#N canvas 603 592 379 261 META 0;
#X text 12 184 HELP_PATCH_AUTHORS "pd meta" information added by Jonathan
Wilkes for Pd version 0.42. Updated by Fred Jan Kraan 2016-02.;
#X text 12 165 AUTHOR Olaf Matthes <olaf.matthes@gmx.de>;
#X text 12 25 LICENSE GPL v2;
#X text 12 5 KEYWORDS control network;
#X text 12 105 OUTLET_1 float;
#X text 12 45 DESCRIPTION;
#X text 12 65 INLET_0 print;
#X text 12 85 OUTLET_0 float;
#X text 12 125 OUTLET_3 float;
#X text 12 145 OUTLET_4 symbol;
#X restore 502 514 pd META;
#X floatatom 82 283 5 0 0 0 - - -, f 5;
#X floatatom 402 159 5 0 0 0 - - -, f 5;
#X floatatom 489 159 5 0 0 0 - - -, f 5;
#X text 107 357 float;
#X text 7 23 a netreceive with additional information, f 76;
#X obj 82 170 maxlib/netrec 3004;
#N canvas 589 436 450 300 transmitters 0;
#X floatatom 76 201 5 0 0 0 - - -, f 5;
#X floatatom 228 200 5 0 0 0 - - -, f 5;
#X obj 0 0 cnv 15 425 20 empty empty empty 3 12 0 14 -204280 -1 0;
#X obj 70 255 outlet;
#X obj 222 255 outlet;
#X text 6 1 transmitters;
#N canvas 665 537 450 300 toggle 0;
#X obj 128 20 inlet;
#X obj 145 272 outlet;
#X msg 169 20 3002;
#X obj 145 88 tgl 15 0 empty empty empty 17 7 0 10 -262144 -1 -1 0
1;
#X obj 145 139 bng 15 250 50 0 empty empty empty 17 7 0 10 -262144
-1 -1;
#X obj 184 139 bng 15 250 50 0 empty empty empty 17 7 0 10 -262144
-1 -1;
#X obj 145 112 moses 1;
#X obj 145 172 f;
#X obj 184 171 f;
#X obj 128 52 t f b f f;
#X msg 145 215 disconnect localhost \$1;
#X msg 184 239 connect localhost \$1;
#X obj 195 272 outlet;
#X connect 0 0 9 0;
#X connect 2 0 9 0;
#X connect 3 0 6 0;
#X connect 3 0 12 0;
#X connect 4 0 7 0;
#X connect 5 0 8 0;
#X connect 6 0 4 0;
#X connect 6 1 5 0;
#X connect 7 0 10 0;
#X connect 8 0 11 0;
#X connect 9 1 3 0;
#X connect 9 2 7 1;
#X connect 9 3 8 1;
#X connect 10 0 1 0;
#X connect 11 0 1 0;
#X restore 70 121 pd toggle connection;
#X obj 197 122 tgl 15 0 empty empty empty 17 7 0 10 -262144 -1 -1 0
1;
#N canvas 665 537 450 300 toggle 0;
#X obj 128 20 inlet;
#X obj 145 272 outlet;
#X msg 169 20 3002;
#X obj 145 88 tgl 15 0 empty empty empty 17 7 0 10 -262144 -1 -1 1
1;
#X obj 145 139 bng 15 250 50 0 empty empty empty 17 7 0 10 -262144
-1 -1;
#X obj 184 139 bng 15 250 50 0 empty empty empty 17 7 0 10 -262144
-1 -1;
#X obj 145 112 moses 1;
#X obj 145 172 f;
#X obj 184 171 f;
#X obj 128 52 t f b f f;
#X msg 145 215 disconnect localhost \$1;
#X msg 184 239 connect localhost \$1;
#X obj 195 272 outlet;
#X connect 0 0 9 0;
#X connect 2 0 9 0;
#X connect 3 0 6 0;
#X connect 3 0 12 0;
#X connect 4 0 7 0;
#X connect 5 0 8 0;
#X connect 6 0 4 0;
#X connect 6 1 5 0;
#X connect 7 0 10 0;
#X connect 8 0 11 0;
#X connect 9 1 3 0;
#X connect 9 2 7 1;
#X connect 9 3 8 1;
#X connect 10 0 1 0;
#X connect 11 0 1 0;
#X restore 222 121 pd toggle connection;
#X obj 349 122 tgl 15 0 empty empty empty 17 7 0 10 -262144 -1 -1 1
1;
#X obj 70 168 netsend;
#X obj 222 168 netsend;
#X obj 70 70 inlet;
#X obj 222 70 inlet;
#X floatatom 111 201 5 0 0 0 - - -, f 5;
#X floatatom 263 200 5 0 0 0 - - -, f 5;
#N canvas 605 409 450 300 counter 0;
#X obj 115 116 f 0;
#X obj 142 115 + 1;
#X obj 115 87 metro 500;
#X msg 184 84 0;
#X obj 140 63 tgl 15 0 empty empty empty 17 7 0 10 -262144 -1 -1 0
1;
#X floatatom 140 140 5 0 0 0 - - -, f 5;
#X obj 115 176 outlet;
#X obj 115 28 inlet;
#X obj 0 0 cnv 15 425 20 empty empty empty 3 12 0 14 -204280 -1 0;
#X text 6 1 counter;
#X connect 0 0 1 0;
#X connect 0 0 5 0;
#X connect 0 0 6 0;
#X connect 1 0 0 1;
#X connect 2 0 0 0;
#X connect 3 0 0 1;
#X connect 4 0 2 0;
#X connect 7 0 2 0;
#X restore 291 70 pd counter;
#X msg 291 92 send \$1;
#X obj 274 71 tgl 15 0 empty empty empty 17 7 0 10 -262144 -1 -1 1
1;
#X obj 291 40 inlet;
#X connect 6 0 10 0;
#X connect 6 1 7 0;
#X connect 8 0 11 0;
#X connect 8 1 9 0;
#X connect 10 0 0 0;
#X connect 10 0 3 0;
#X connect 10 1 14 0;
#X connect 11 0 1 0;
#X connect 11 0 4 0;
#X connect 11 1 15 0;
#X connect 12 0 6 0;
#X connect 13 0 8 0;
#X connect 16 0 17 0;
#X connect 17 0 10 0;
#X connect 17 0 11 0;
#X connect 18 0 16 0;
#X connect 19 0 16 0;
#X restore 402 117 pd transmitters;
#X msg 402 91 3004;
#X msg 445 90 3004;
#X obj 487 4 netrec;
#X msg 82 67 print;
#X floatatom 117 283 5 0 0 0 - - -, f 5;
#X floatatom 152 283 5 0 0 0 - - -, f 5;
#X symbolatom 187 283 10 0 0 0 - - -, f 10;
#X text 107 319 print;
#X text 175 319 - lists current connection IP addresses and socket
numbers;
#X obj 79 380 cnv 17 3 17 empty empty 1 5 9 0 16 -228856 -162280 0
;
#X text 107 380 float;
#X text 161 380 - the number of connections;
#X obj 79 403 cnv 17 3 17 empty empty 2 5 9 0 16 -228856 -162280 0
;
#X text 107 403 float;
#X obj 79 427 cnv 17 3 17 empty empty 3 5 9 0 16 -228856 -162280 0
;
#X text 161 357 - received data;
#X text 161 403 - socket number;
#X text 107 427 symbol;
#X text 161 427 - IP address of transmitter;
#X obj 489 90 tgl 15 0 empty empty empty 17 7 0 10 -262144 -1 -1 0
1;
#X text 85 486 listening port, f 64;
#X connect 14 0 9 0;
#X connect 14 1 20 0;
#X connect 14 2 21 0;
#X connect 14 3 22 0;
#X connect 15 0 10 0;
#X connect 15 1 11 0;
#X connect 16 0 15 0;
#X connect 17 0 15 1;
#X connect 19 0 14 0;
#X connect 35 0 15 2;
