#N canvas 990 79 557 515 10;
#X obj 0 0 cnv 15 552 40 empty empty rewrap 3 12 0 18 -204280 -1 0
;
#X obj 0 332 cnv 3 550 3 empty empty inlets 8 12 0 13 -228856 -1 0
;
#X obj 0 413 cnv 3 550 3 empty empty outlets 8 12 0 13 -228856 -1 0
;
#X obj 0 479 cnv 3 550 3 empty empty arguments 8 12 0 13 -228856 -1
0;
#X obj 79 343 cnv 17 3 17 empty empty 0 5 9 0 16 -228856 -162280 0
;
#X obj 0 513 cnv 15 552 21 empty empty empty 20 12 0 14 -233017 -33289
0;
#N canvas 240 348 428 75 Related_objects 0;
#X obj 0 0 cnv 15 425 20 empty empty empty 3 12 0 14 -204280 -1 0;
#X text 6 1 Related Objects;
#X restore 206 515 pd Related_objects;
#N canvas 491 586 379 261 META 0;
#X text 12 205 HELP_PATCH_AUTHORS "pd meta" information added by Jonathan
Wilkes for Pd version 0.42. Updated by Fred Jan Kraan 2016-02.;
#X text 12 25 LICENSE GPL v2;
#X text 12 45 DESCRIPTION wraps floats back and forth into a range
;
#X text 12 5 KEYWORDS control;
#X text 12 65 INLET_0 float;
#X text 12 85 INLET_1 float;
#X text 12 105 INLET_2 float;
#X text 12 125 OUTLET_0 float;
#X text 12 145 OUTLET_1 float;
#X text 12 166 AUTHOR Olaf Matthes;
#X text 12 185 MAINTAINER Fred Jan Kraan <fjkraan@xs4all.nl>;
#X restore 502 517 pd META;
#X obj 500 4 rewrap;
#X text 8 23 wraps floats back and forth into a range;
#X floatatom 115 303 8 0 0 0 - - -, f 8;
#X floatatom 167 122 5 0 0 0 - - -, f 5;
#X floatatom 220 122 5 0 0 0 - - -, f 5;
#X floatatom 220 303 5 0 0 0 - - -, f 5;
#X obj 115 215 maxlib/rewrap 6 40;
#X text 87 496 1: <lower limit> \, 2: <upper limit>;
#X obj 79 366 cnv 17 3 17 empty empty 1 5 9 0 16 -228856 -162280 0
;
#X obj 79 389 cnv 17 3 17 empty empty 2 5 9 0 16 -228856 -162280 0
;
#X text 107 342 float;
#X text 107 365 float;
#X text 107 388 float;
#X text 157 342 - input value;
#X text 157 365 - lower limit;
#X text 157 388 - upper limit;
#X obj 79 429 cnv 17 3 17 empty empty 0 5 9 0 16 -228856 -162280 0
;
#X obj 79 452 cnv 17 3 17 empty empty 1 5 9 0 16 -228856 -162280 0
;
#X text 107 428 float;
#X text 107 451 float;
#X text 157 428 - output value;
#X text 157 451 - number of wraps;
#N canvas 1 79 450 300 updowncounter 0;
#X obj 126 34 inlet;
#X obj 231 33 inlet;
#X obj 126 233 outlet;
#X obj 278 35 tgl 15 0 empty empty empty 17 7 0 10 -262144 -1 -1 0
1;
#X obj 126 128 metro 100;
#X obj 126 167 f;
#X obj 154 167 + 1;
#X obj 231 68 moses 1;
#X obj 231 97 bng 15 250 50 0 empty empty empty 17 7 0 10 -262144 -1
-1;
#X obj 270 98 bng 15 250 50 0 empty empty empty 17 7 0 10 -262144 -1
-1;
#X floatatom 139 200 5 0 0 0 - - -, f 5;
#X obj 136 90 tgl 15 0 empty empty empty 17 7 0 10 -262144 -1 -1 0
1;
#X msg 231 124 -1;
#X msg 270 123 1;
#X connect 0 0 4 0;
#X connect 1 0 7 0;
#X connect 3 0 7 0;
#X connect 4 0 5 0;
#X connect 5 0 6 0;
#X connect 5 0 2 0;
#X connect 5 0 10 0;
#X connect 6 0 5 1;
#X connect 7 0 8 0;
#X connect 7 1 9 0;
#X connect 8 0 12 0;
#X connect 9 0 13 0;
#X connect 11 0 4 0;
#X connect 12 0 6 1;
#X connect 13 0 6 1;
#X restore 115 101 pd updowncounter;
#X obj 208 80 tgl 15 0 empty empty empty 17 7 0 10 -262144 -1 -1 1
1;
#X obj 208 56 loadbang;
#X obj 115 81 tgl 15 0 empty empty empty 17 7 0 10 -262144 -1 -1 1
1;
#X obj 80 253 vsl 10 64 0 50 0 0 empty empty empty 0 -9 0 10 -262144
-1 -1 3276 1;
#X text 91 248 50;
#X text 93 309 0;
#X floatatom 86 122 8 0 0 0 - - -, f 8;
#X text 227 80 down/up;
#X connect 11 0 14 1;
#X connect 12 0 14 2;
#X connect 14 0 10 0;
#X connect 14 0 34 0;
#X connect 14 1 13 0;
#X connect 30 0 14 0;
#X connect 30 0 37 0;
#X connect 31 0 30 1;
#X connect 32 0 31 0;
#X connect 33 0 30 0;
