#N canvas 493 80 557 515 10;
#X obj 0 0 cnv 15 552 40 empty empty tilt 3 12 0 18 -204280 -1 0;
#X obj 0 304 cnv 3 550 3 empty empty inlets 8 12 0 13 -228856 -1 0
;
#X obj 0 438 cnv 3 550 3 empty empty outlets 8 12 0 13 -228856 -1 0
;
#X obj 0 486 cnv 3 550 3 empty empty arguments 8 12 0 13 -228856 -1
0;
#X obj 79 319 cnv 17 3 85 empty empty 0 5 9 0 16 -228856 -162280 0
;
#X obj 0 532 cnv 15 552 21 empty empty empty 20 12 0 14 -233017 -33289
0;
#N canvas 236 350 428 75 Related_objects 0;
#X obj 0 0 cnv 15 425 20 empty empty empty 3 12 0 14 -204280 -1 0;
#X text 6 1 Related Objects;
#X restore 206 536 pd Related_objects;
#N canvas 540 606 379 261 META 0;
#X text 12 164 HELP_PATCH_AUTHORS "pd meta" information added by Jonathan
Wilkes for Pd version 0.42. Updated by Fred Jan Kraan 2016-02.;
#X text 12 128 AUTHOR Olaf Matthes;
#X text 12 25 LICENSE GPL v2;
#X text 12 85 INLET_1 float;
#X text 12 45 DESCRIPTION meassure 'tilt' of input;
#X text 12 5 KEYWORDS control;
#X text 12 65 INLET_0 float tilt hi low trip;
#X text 12 105 OUTLET_0 bang;
#X text 12 147 MAINTAINER Fred Jan Kraan <fjkraan@xs4all.nl>;
#X restore 502 535 pd META;
#X obj 79 454 cnv 17 3 17 empty empty 0 5 9 0 16 -228856 -162280 0
;
#X text 159 318 - input value;
#X obj 79 413 cnv 17 3 17 empty empty 1 5 9 0 16 -228856 -162280 0
;
#X text 157 453 - output value;
#X text 107 412 float;
#X text 14 23 meassure 'tilt' of input, f 44;
#X obj 510 4 tilt;
#X floatatom 88 55 5 0 0 0 - - -, f 5;
#X obj 88 266 bng 20 250 50 0 empty empty empty 0 -6 0 8 -262144 -1
-1;
#X floatatom 205 99 5 0 0 0 - - -, f 5;
#X msg 136 77 hi 230;
#X msg 184 77 low 17.3;
#X msg 187 55 trip 173;
#X msg 131 55 tilt 25;
#X obj 88 192 maxlib/tilt 0.78 100;
#X text 157 412 - interval;
#X text 107 318 float;
#X text 107 337 hi n;
#X text 159 337 - high limit: ignore changes higher than this;
#X text 107 355 low n;
#X text 159 355 - low limit: reset 'start tilt' in case;
#X text 107 373 tilt n;
#X text 159 373 - tilt: maximum value change within one interval;
#X text 107 391 trip n;
#X text 159 391 - trip point: alert when exceeding;
#X text 107 453 bang;
#X text 80 506 1: <tilt value> \, 2: <check interval> (defailt 4000
ms), f 64;
#X connect 15 0 22 0;
#X connect 17 0 22 1;
#X connect 18 0 22 0;
#X connect 19 0 22 0;
#X connect 20 0 22 0;
#X connect 21 0 22 0;
#X connect 22 0 16 0;
