#N canvas 484 81 557 515 10;
#X obj 0 0 cnv 15 552 40 empty empty triang 3 12 0 18 -204280 -1 0
;
#X obj 0 332 cnv 3 550 3 empty empty inlets 8 12 0 13 -228856 -1 0
;
#X obj 0 397 cnv 3 550 3 empty empty outlets 8 12 0 13 -228856 -1 0
;
#X obj 0 437 cnv 3 550 3 empty empty arguments 8 12 0 13 -228856 -1
0;
#X obj 79 406 cnv 17 3 17 empty empty 0 5 9 0 16 -228856 -162280 0
;
#X obj 79 343 cnv 17 3 17 empty empty 0 5 9 0 16 -228856 -162280 0
;
#X obj 0 476 cnv 15 552 21 empty empty empty 20 12 0 14 -233017 -33289
0;
#N canvas 240 348 428 75 Related_objects 0;
#X obj 0 0 cnv 15 425 20 empty empty empty 3 12 0 14 -204280 -1 0;
#X text 6 1 Related Objects;
#X restore 206 478 pd Related_objects;
#N canvas 499 582 379 261 META 0;
#X text 12 142 HELP_PATCH_AUTHORS "pd meta" information added by Jonathan
Wilkes for Pd version 0.42. Updated by Fred Jan Kraan 2016-02.;
#X text 12 105 AUTHOR Olaf Matthes;
#X text 12 25 LICENSE GPL v2;
#X text 12 65 INLET_0 bang;
#X text 12 5 KEYWORDS control random;
#X text 12 45 DESCRIPTION triangularly distributed random numbers;
#X text 12 85 OUTLET_0 float;
#X text 12 124 MAINTAINER Fred Jan Kraan <fjkraan@xs4all.nl>;
#X restore 502 480 pd META;
#X obj 77 96 bng 20 250 50 0 empty empty empty 0 -6 0 8 -262144 -1
-1;
#X floatatom 77 259 5 0 0 0 - - -, f 5;
#N canvas 0 50 450 250 (subpatch) 0;
#X array \$0-a1 100 float 2;
#X coords 0 1 100 0 200 140 1 0 0;
#X restore 337 59 graph;
#X obj 77 74 metro 100;
#X obj 77 53 tgl 15 0 empty empty empty 17 7 0 10 -262144 -1 -1 0 1
;
#X text 107 342 bang;
#X text 107 406 float;
#X text 161 406 - next random number;
#N canvas 1 79 450 300 arrayWrite 0;
#X obj 0 0 cnv 15 425 20 empty empty empty 3 12 0 14 -204280 -1 0;
#X text 6 1 Array writer;
#X obj 136 174 tabwrite \$0-a1;
#X obj 217 152 f 0;
#X obj 243 153 + 1;
#X obj 136 130 t f b;
#X msg 217 129 0;
#X text 241 129 restart;
#X obj 136 82 inlet;
#X obj 217 82 inlet;
#X connect 3 0 4 0;
#X connect 3 0 2 1;
#X connect 4 0 3 1;
#X connect 5 0 2 0;
#X connect 5 1 3 0;
#X connect 6 0 3 0;
#X connect 8 0 5 0;
#X connect 9 0 6 0;
#X restore 341 260 pd arrayWrite;
#X obj 416 238 bng 15 250 50 0 empty empty empty 17 7 0 10 -262144
-1 -1;
#X obj 77 158 maxlib/triang;
#X text 327 59 1;
#X text 327 187 0;
#X text 162 342 - produces next value;
#X text 86 458 comment;
#X text 8 23 triangularly distributed random numbers;
#X obj 495 4 triang;
#X connect 9 0 19 0;
#X connect 12 0 9 0;
#X connect 13 0 12 0;
#X connect 18 0 17 1;
#X connect 19 0 10 0;
#X connect 19 0 17 0;
